<svg id="Layer_1" data-name="Layer 1" xmlns="http://www.w3.org/2000/svg" width="41.51mm" height="12.14mm" viewBox="0 0 117.66 34.42"><title>logo</title><path id="Fill-1" d="M95.25,22.94a3.9,3.9,0,0,0,.18-1.19.14.14,0,0,0-.23-.12l-5.66,3.92a1.79,1.79,0,0,0-.67,1.2,14.16,14.16,0,0,1-.47,3c-.75,2.33-.64,3.85.15,4.4s2.25.16,4.2-1.34a14.29,14.29,0,0,1,2.68-1.45,1.75,1.75,0,0,0,.91-1l1.79-6.54a.16.16,0,0,0-.19-.19,4.12,4.12,0,0,0-1,.53c-1.49,1.08-2.24.54-1.67-1.22" transform="translate(0 0)" fill="#64b298" fill-rule="evenodd"/><path id="Fill-3" d="M93.57,17.78c-1.49-1.08-1.2-2,.64-2a4.16,4.16,0,0,0,1.19-.19.15.15,0,0,0,0-.26L90,11.23A1.71,1.71,0,0,0,88.67,11a13.53,13.53,0,0,1-3,.54c-2.39.05-3.77.64-4,1.56s.54,2.18,2.52,3.53a14,14,0,0,1,2.16,2.07,1.69,1.69,0,0,0,1.23.52l6.64-.44a.15.15,0,0,0,.11-.24,3.91,3.91,0,0,0-.77-.75" transform="translate(0 0)" fill="#e59b42" fill-rule="evenodd"/><path id="Fill-5" d="M103.81,7.31A1.63,1.63,0,0,0,103.66,6a14,14,0,0,1-1.36-2.63C101.57,1.13,100.61,0,99.65,0S97.72,1.13,97,3.37A13.61,13.61,0,0,1,95.63,6a1.63,1.63,0,0,0-.15,1.31l2.37,6.26a.16.16,0,0,0,.27,0,4.51,4.51,0,0,0,.48-1c.57-1.75,1.5-1.75,2.07,0a4.25,4.25,0,0,0,.5,1,.15.15,0,0,0,.26,0Z" transform="translate(0 0)" fill="#e05151" fill-rule="evenodd"/><path id="Fill-7" d="M110.42,26.75a1.79,1.79,0,0,0-.67-1.2l-5.67-3.93a.15.15,0,0,0-.24.12,4.36,4.36,0,0,0,.18,1.2c.58,1.76-.18,2.3-1.67,1.22a4.07,4.07,0,0,0-1-.52.15.15,0,0,0-.2.18L103,30.36a1.75,1.75,0,0,0,.91,1,14.29,14.29,0,0,1,2.68,1.45c1.95,1.5,3.42,1.9,4.21,1.34s.89-2.07.14-4.4a14.16,14.16,0,0,1-.47-3" transform="translate(0 0)" fill="#35779d" fill-rule="evenodd"/><path id="Fill-9" d="M117.61,13.09c-.28-.92-1.65-1.51-4-1.56a13.53,13.53,0,0,1-2.94-.54,1.7,1.7,0,0,0-1.32.24l-5.45,4.14a.15.15,0,0,0,0,.26,4,4,0,0,0,1.17.18c1.85,0,2.13.89.64,2a4.54,4.54,0,0,0-.77.75.15.15,0,0,0,.11.24l6.65.44a1.69,1.69,0,0,0,1.24-.52,14,14,0,0,1,2.16-2.07c2-1.35,2.8-2.61,2.52-3.53" transform="translate(0 0)" fill="#a85a8e" fill-rule="evenodd"/><path id="Fill-11" d="M52,28.17a4.13,4.13,0,0,1-6.18,0c-.72-1-1-1.59-1-4.46s.24-3.39,1-4.41a4.13,4.13,0,0,1,6.18,0c.72,1,.95,1.59.95,4.45s-.23,3.4-.95,4.42m2.91-11.84a7.74,7.74,0,0,0-6-2.53,7.75,7.75,0,0,0-6,2.53c-1.48,1.64-2.14,3.09-2.14,7.38s.66,5.78,2.14,7.42a7.76,7.76,0,0,0,6,2.54,7.75,7.75,0,0,0,6-2.54C56.35,29.49,57,28,57,23.71s-.66-5.74-2.15-7.38" transform="translate(0 0)" fill="#fff" fill-rule="evenodd"/><path id="Fill-13" d="M70.72,28.17a4.14,4.14,0,0,1-6.19,0c-.71-1-1-1.59-1-4.46s.24-3.39,1-4.41a4.14,4.14,0,0,1,6.19,0c.71,1,1,1.59,1,4.45s-.24,3.4-1,4.42m2.91-11.84a8.39,8.39,0,0,0-12,0c-1.48,1.64-2.14,3.09-2.14,7.38s.66,5.78,2.14,7.42a8.37,8.37,0,0,0,12,0c1.48-1.64,2.14-3.09,2.14-7.42s-.66-5.74-2.14-7.38" transform="translate(0 0)" fill="#fff" fill-rule="evenodd"/><path id="Fill-15" d="M3.86,8.47a7.46,7.46,0,0,0-2.41,5.76c0,4.14,2.69,7,7.19,7.61l1.55.22,2,.27c2.18.27,3.38,1.51,3.38,3.49,0,2.18-2,3.59-5.17,3.59a12.33,12.33,0,0,1-6-1.63,2.23,2.23,0,0,0-2.79.3h0c-.06,0-.27.29-1.56,1.76L0,29.89.06,30a15,15,0,0,0,10.28,3.74c5.95,0,9.49-2.94,9.49-7.87,0-3.19-1.94-7.15-7.41-7.81l-3-.41C7.11,17.25,5.73,16,5.73,14.3A3.43,3.43,0,0,1,7,11.52a5,5,0,0,1,3.09-.93,11.68,11.68,0,0,1,5.08,1.24,2.15,2.15,0,0,0,2.62-.74L19.07,9.2l-.07,0a15.5,15.5,0,0,0-8.73-2.84A9.39,9.39,0,0,0,3.86,8.47" transform="translate(0 0)" fill="#fff" fill-rule="evenodd"/><polygon id="Fill-17" points="23.05 14.36 23.05 33.43 27.16 33.43 27.16 14.36 23.05 14.36" fill="#fff" fill-rule="evenodd"/><path id="Fill-19" d="M23.05,6.9V10a2.14,2.14,0,0,0,2.13,2.14h2V9A2.13,2.13,0,0,0,25,6.9Z" transform="translate(0 0)" fill="#fff" fill-rule="evenodd"/><path id="Fill-21" d="M33.44,6.9A2.13,2.13,0,0,0,31.31,9v19.5a4.56,4.56,0,0,0,4.83,4.9h3l-.86-3.87H36.72c-.95,0-1.3-.38-1.3-1.38V17.7h2.85V14.36H35.42V6.9Z" transform="translate(0 0)" fill="#fff" fill-rule="evenodd"/></svg>